<svg xmlns="http://www.w3.org/2000/svg" viewBox="0 0 32 32">
  <defs>
    <linearGradient id="bg" x1="0" y1="0" x2="0" y2="1">
      <stop offset="0%" stop-color="#1E3A5F"/>
      <stop offset="100%" stop-color="#0A1628"/>
    </linearGradient>
    <linearGradient id="drop" x1="0" y1="0" x2="0" y2="1">
      <stop offset="0%" stop-color="#5BC0EB"/>
      <stop offset="100%" stop-color="#2E86AB"/>
    </linearGradient>
  </defs>

  <!-- Fundo arredondado -->
  <rect width="32" height="32" rx="8" fill="url(#bg)"/>

  <!-- Gota -->
  <path d="M16 4 C16 4 7 15.5 7 20.5 C7 25.2 11.1 29 16 29 C20.9 29 25 25.2 25 20.5 C25 15.5 16 4 16 4 Z"
        fill="url(#drop)"/>

  <!-- Onda interna 1 -->
  <path d="M9.5 21.5 C11.2 19.5 13.5 20.5 16 21.5 C18.5 22.5 20.8 21.5 22.5 19.5"
        stroke="#fff" stroke-width="1.4" stroke-linecap="round" fill="none" opacity="0.75"/>

  <!-- Onda interna 2 -->
  <path d="M10.5 24.5 C12.2 22.5 14 23.5 16 24.5 C18 25.5 19.8 24 21.5 22.5"
        stroke="#fff" stroke-width="1.1" stroke-linecap="round" fill="none" opacity="0.45"/>

  <!-- Brilho -->
  <ellipse cx="12.5" cy="13" rx="1.8" ry="3" fill="#fff" opacity="0.22" transform="rotate(-20 12.5 13)"/>
</svg>
